<svg width="64" height="64" viewBox="0 0 64 64" fill="none" xmlns="http://www.w3.org/2000/svg">
<g clip-path="url(#clip0_294_45)">
<path d="M27.1001 12.7623C32.5876 11.0949 38.638 12.2028 43.0005 15.7028C46.4652 18.4728 48.4703 22.4176 48.6303 26.5524L48.6372 27.0827L48.8647 27.0895C53.4784 27.3041 57.3544 30.3318 58.8452 34.5016C57.2111 33.8873 55.4772 33.6188 53.7133 33.6188H48.6108C48.4256 33.6188 48.2426 33.6303 48.063 33.651C47.8838 33.6304 47.7008 33.6188 47.5161 33.6188H44.3667C42.951 33.6188 41.6148 34.2517 40.7182 35.3346L40.5454 35.5563L39.3442 37.195L38.0688 35.5036C37.2298 34.3908 35.9459 33.7077 34.5639 33.6266L34.2866 33.6188H31.1362C28.5202 33.6189 26.3999 35.7401 26.3999 38.3561V49.5094H18.6421L18.0874 49.4899C10.7375 49.2148 4.79482 43.4925 4.51218 36.3327L4.50046 35.7926C4.50046 28.9251 9.70042 23.2672 16.4604 22.2497L16.7446 22.2096L16.9204 21.7575C18.5779 17.7075 22.0602 14.4925 26.4926 12.9625L27.103 12.7623H27.1001ZM44.2612 43.9196L39.9253 49.5094L44.2612 43.9176V43.9196ZM58.0053 43.2506C58.0614 43.3381 58.1147 43.4283 58.1655 43.5211V43.5221C58.0641 43.3368 57.9519 43.1611 57.8296 42.9967L58.0053 43.2506ZM53.7973 41.1901C53.9891 41.1901 54.176 41.1972 54.3579 41.2116C54.176 41.1974 53.9891 41.1911 53.7973 41.1911H51.8657V41.1901H53.7973Z" fill="#EBD652"/>
<path d="M31.136 54V38.355H34.286L40.145 46.125H38.675L44.366 38.355H47.516V54H44.261V41.946L45.563 42.24L39.536 50.01H39.116L33.299 42.24L34.391 41.946V54H31.136ZM48.6103 54V38.355H53.7133C55.4073 38.355 56.8773 38.691 58.1233 39.363C59.3693 40.035 60.3353 40.959 61.0213 42.135C61.7073 43.311 62.0503 44.655 62.0503 46.167C62.0503 47.679 61.7073 49.03 61.0213 50.22C60.3353 51.396 59.3693 52.32 58.1233 52.992C56.8773 53.664 55.4073 54 53.7133 54H48.6103ZM51.8653 51.165H53.7973C54.8193 51.165 55.7013 50.962 56.4433 50.556C57.1853 50.136 57.7593 49.555 58.1653 48.813C58.5853 48.057 58.7953 47.175 58.7953 46.167C58.7953 45.145 58.5853 44.263 58.1653 43.521C57.7593 42.779 57.1853 42.205 56.4433 41.799C55.7013 41.393 54.8193 41.19 53.7973 41.19H51.8653V51.165Z" fill="#EBD652"/>
</g>
<defs>
<clipPath id="clip0_294_45">
<rect width="60" height="60" fill="white" transform="translate(2 2)"/>
</clipPath>
</defs>
</svg>
